<svg id="Layer_1" data-name="Layer 1" xmlns="http://www.w3.org/2000/svg" viewBox="0 0 2343 527"><defs><style>.cls-1{fill:#fefefe;}.cls-2{fill:#ee3642;}.cls-3{fill:#ee3743;}</style></defs><path class="cls-1" d="M603.87,335.29q0,64.4,0,128.79c0,6.23,1.53,7.77,7.72,7.79q15,0,30,0H787c6.67,0,8.47-1.8,8.5-8.42,0-4.5,0-9,0-13.48,0-8.1-1.53-9.64-9.6-9.64-48.48,0-96.95-.05-145.43.11-4,0-4.67-1.13-4.61-4.76q.32-21.9,0-43.81c0-3.32.83-4.09,4.11-4.08q57.72.18,115.45.07c6.26,0,8.37-2,8.45-8.24.06-5.12,0-10.24,0-15.35,0-6.85-1.59-8.41-8.36-8.41-38.48,0-77-.05-115.45.09-3.54,0-4.25-1-4.2-4.33.18-13,.2-26,0-38.94-.06-3.3.77-4.09,4.08-4.08,38.61.13,77.21.09,115.82.08,6.08,0,8-1.89,8.1-8.05.07-5,0-10,0-15,0-7.34-1.73-9-9.11-9-38.23,0-76.46-.06-114.69.09-3.55,0-4.26-1.05-4.21-4.35.19-12.23,0-24.46.09-36.69,0-5.3-.77-4.67,4.85-4.68H787.39c7.09,0,8.36-1.24,8.38-8.18q0-7.86,0-15.72c0-6.32-1.31-7.63-7.71-7.63H611.9c-6.74,0-8,1.33-8,8.15ZM199,.83H13.4A45,45,0,0,0,8.9.92C2.34,1.59-1.5,7.07,0,13.48c1.38,5.73,5.3,8.4,12.4,8.38l269.9-.57q40.29-.08,80.59-.09c1.05,0,2.52-.61,3.08.53s-.79,1.95-1.41,2.81c-2.42,3.34-4.88,6.64-7.37,9.93Q203.28,238.08,51.45,443.26c-16.36,22.22-32.9,44.31-48.18,67.29-2.32,3.5-3,6.77-.47,10.35A11,11,0,0,0,14,525.33c4.11-.77,6.27-3.79,8.53-6.82Q202.22,277.58,381.93,36.65c5.07-6.8,10.7-13.23,14.85-20.66a10,10,0,0,0-7.41-15,32,32,0,0,0-4.49-.13Zm1328,404.86q0,29.38,0,58.78c0,5.79,1.58,7.35,7.33,7.4,5.25,0,10.5,0,15.74,0,7.53,0,8.66-1.12,8.66-8.67,0-29.45,0-58.91-.07-88.36,0-3.16.6-4.22,4-4.19,19.24.19,38.48.15,57.72,0,2.63,0,4,.9,5.27,3.06,9.11,15.32,18.35,30.58,27.55,45.85s18.31,30.31,27.37,45.53c2.82,4.72,6.49,7.13,12.24,6.85,7.6-.36,15.24,0,22.86-.11,1.94,0,4.59.84,5.57-1.08s-1.11-3.63-2.11-5.3q-28-46.68-56.09-93.3c-1.68-2.78-1.52-3.54,1.71-4.63,41-13.84,66.09-54.26,59.9-96.15-5.7-38.52-40.47-70.52-79.53-71.66-31.71-.92-63.47-.26-95.2-.23-4.72,0-6.52,1.95-6.58,6.69-.07,5.24,0,10.48,0,15.72,0,7.27,1.58,8.86,8.73,8.86q44,0,88.09,0c33.83,0,60.11,33.32,52.16,66.17-5.8,24-28.86,43.22-53.85,42.67-34.09-.74-68.21-.18-102.32-.18-7.48,0-9.17,1.71-9.18,9.33Zm-93.27-121.53h0q0-40.62,0-81.25c0-5.6-2.23-7.88-7.92-8-5-.07-10,0-15,0-7,0-8.64,1.66-8.64,8.54q0,73.77,0,147.53a139.9,139.9,0,0,1-1.32,20.14c-5.11,35.23-28.62,65.75-68.62,69.67-26.94,2.64-50.5-4.86-68.86-25.43-15.16-17-21.45-37.45-21.51-59.88-.12-50.93,0-101.85,0-152.77,0-5.49-2.22-7.76-7.65-7.8s-10.74,0-16.12,0c-6.71,0-8.3,1.6-8.3,8.44q0,77.51,0,155a121.11,121.11,0,0,0,2,21.57c11.31,62.83,74.83,103.88,137.1,88.57,49.72-12.22,84.22-55.34,84.82-106.49C1433.92,336.09,1433.66,310.12,1433.66,284.16ZM1032.8,191.52c-22.79.06-41.86,3.94-60,12-51.45,22.76-90.13,77.66-82.72,143.56,3.69,32.82,17,61.13,40.52,84.23,41.11,40.32,101.28,51.57,154.32,29.27A118.54,118.54,0,0,0,1111.7,445c4.54-3.52,4.77-5.28,1.9-10.09q-3.36-5.62-6.71-11.25c-5.82-9.79-5.79-9.73-15.5-4-25.88,15.18-53.55,22.65-83.58,17.62-57.87-9.69-97.44-66.13-85-126.57,12.06-58.47,68.41-90.65,116.17-86.66,20.26,1.7,39.14,7.49,55.59,19.95,4.73,3.59,7.87,3.07,11.17-1.94,2.75-4.16,5.25-8.48,7.84-12.74,3.93-6.45,3.67-7.62-2.65-12.08C1086.66,200.09,1059.54,191.78,1032.8,191.52Zm-796,335.42h141.7a41.59,41.59,0,0,0,5.24-.19c5.74-.76,9.34-4.94,9.1-10.45-.28-6.27-3.57-9.54-9.94-9.8-1.63-.07-3.25,0-4.88,0q-130.26,0-260.52,0c-1.57,0-3.82.79-4.54-.51s1.24-2.72,2.16-3.95q58-77.26,116.13-154.49Q313.64,237.94,396,128.39c3.63-4.84,2.13-11.3-3.33-14.34s-10.64-1.66-15.14,4.3Q259.37,275.27,141.15,432.16q-29.41,39-58.86,78C78.65,515,79.43,520.42,84.13,524c3.15,2.42,6.74,2.94,10.59,2.93Q165.76,526.9,236.79,526.94Zm2036-295.42h61.48c5.34,0,7.49-2.06,7.6-7.44s0-10.73,0-16.1c0-7.16-1.35-8.51-8.49-8.52q-54.15,0-108.3.06c-2.35,0-5.62-1.39-6.88,1.21-1.15,2.37,1.44,4.55,2.73,6.61Q2265,277.9,2309.27,348.4a14.28,14.28,0,0,1,2.33,8q-.13,54.09,0,108.18c0,5.94,1.37,7.25,7.28,7.27q7.88,0,15.74,0c7,0,8.54-1.56,8.54-8.61q0-54.27,0-108.55a15.53,15.53,0,0,0-2.28-8.42Q2309.1,293,2277.45,239.56C2276,237.13,2274.6,234.67,2272.77,231.52ZM2006,335.28q0,64,0,128.05c0,6.57,2,8.53,8.44,8.54,4.62,0,9.25,0,13.87,0,7.61,0,9.43-1.86,9.43-9.57q0-113.05,0-226.13c0-5.87-.56-5.09,5.27-5.1q36.36,0,72.72,0c6.72,0,8.66-1.95,8.73-8.7.05-4.36,0-8.73,0-13.1,0-7.79-2-9.8-9.69-9.8h-99.7c-7.59,0-9.1,1.54-9.1,9.28ZM504.1,206c0-2.75.06-5.49,0-8.24-.13-5.12-2.39-7.16-7.58-6.81-22.49,1.56-41.42,10.86-56.58,27.27-18.92,20.48-27.48,44.55-22.79,72.52,2.63,15.73,10.47,28.87,20.95,40.68,7.69,8.67,15.72,17.09,22,26.95,6.61,10.4,9.57,21.56,7.63,33.86-4.05,25.68-27.71,49.36-50.35,51.5-3.95.37-5.59,2.71-5.64,6.67-.07,5.49-.11,11,0,16.47.13,4.63,2.64,6.8,7.28,6.38a94.75,94.75,0,0,0,15.12-2.55c55.11-14.16,85.22-83.31,46.37-133.3-7.28-9.36-14.85-18.48-22.23-27.77-6-7.56-10.45-15.95-11.17-25.69-1.38-18.72,6.75-33.93,19.18-47a52.57,52.57,0,0,1,31.41-16.09c5.12-.71,6.37-2.33,6.4-7.4C504.11,211,504.1,208.52,504.1,206Zm1315,130q0,64.4,0,128.77c0,5.37,1.57,7,6.85,7s10.75,0,16.12,0c7.65,0,9.09-1.47,9.09-9.22V276.23q0-34.44,0-68.88c0-6.09-1.73-7.82-7.77-7.88-5.37,0-10.75,0-16.12,0-6.5,0-8.16,1.68-8.16,8.2Z"/><path class="cls-2" d="M603.87,335.29V207.62c0-6.82,1.29-8.15,8-8.15H788.06c6.4,0,7.7,1.31,7.71,7.63q0,7.86,0,15.72c0,6.94-1.29,8.18-8.38,8.18H640.83c-5.62,0-4.83-.62-4.85,4.68-.05,12.23.1,24.46-.09,36.69,0,3.3.66,4.36,4.21,4.35,38.23-.15,76.46-.09,114.69-.09,7.38,0,9.07,1.67,9.11,9,0,5,.05,10,0,15-.09,6.16-2,8.05-8.1,8.05-38.61,0-77.21.05-115.82-.08-3.31,0-4.14.78-4.08,4.08.21,13,.19,26,0,38.94,0,3.29.66,4.34,4.2,4.33,38.49-.14,77-.09,115.45-.09,6.77,0,8.32,1.56,8.36,8.41,0,5.11.05,10.23,0,15.35-.08,6.2-2.19,8.24-8.45,8.24q-57.74,0-115.45-.07c-3.28,0-4.16.76-4.11,4.08q.3,21.9,0,43.81c-.06,3.63.66,4.77,4.61,4.76,48.48-.16,97-.11,145.43-.11,8.07,0,9.6,1.54,9.6,9.64,0,4.49,0,9,0,13.48,0,6.62-1.83,8.42-8.5,8.42H641.58q-15,0-30,0c-6.19,0-7.72-1.56-7.72-7.79Q603.87,399.68,603.87,335.29Z"/><path class="cls-3" d="M199,.83H384.88a32,32,0,0,1,4.49.13,10,10,0,0,1,7.41,15c-4.15,7.43-9.78,13.86-14.85,20.66q-179.67,241-359.42,481.86c-2.26,3-4.42,6-8.53,6.82A11,11,0,0,1,2.8,520.9c-2.52-3.58-1.85-6.85.47-10.35,15.28-23,31.82-45.07,48.18-67.29Q202.84,237.75,357.23,34.47c2.49-3.29,4.95-6.59,7.37-9.93.62-.86,1.95-1.7,1.41-2.81s-2-.53-3.08-.53q-40.29,0-80.59.09l-269.9.57c-7.1,0-11-2.65-12.4-8.38C-1.5,7.07,2.34,1.59,8.9.92A45,45,0,0,1,13.4.83Z"/><path class="cls-2" d="M1526.93,405.69V348.77c0-7.62,1.7-9.33,9.18-9.33,34.11,0,68.23-.56,102.32.18,25,.55,48-18.69,53.85-42.67,8-32.85-18.33-66.13-52.16-66.17q-44,0-88.09,0c-7.15,0-8.72-1.59-8.73-8.86,0-5.24,0-10.48,0-15.72.06-4.74,1.86-6.69,6.58-6.69,31.73,0,63.49-.69,95.2.23,39.06,1.14,73.83,33.14,79.53,71.66,6.19,41.89-18.91,82.31-59.9,96.15-3.23,1.09-3.39,1.85-1.71,4.63q28.17,46.57,56.09,93.3c1,1.67,3,3.51,2.11,5.3s-3.63,1.06-5.57,1.08c-7.62.06-15.26-.25-22.86.11-5.75.28-9.42-2.13-12.24-6.85-9.06-15.22-18.24-30.36-27.37-45.53s-18.44-30.53-27.55-45.85c-1.29-2.16-2.64-3.08-5.27-3.06-19.24.13-38.48.17-57.72,0-3.44,0-4.05,1-4,4.19.12,29.45.08,58.91.07,88.36,0,7.55-1.13,8.67-8.66,8.67-5.24,0-10.49,0-15.74,0-5.75-.05-7.32-1.61-7.33-7.4Q1526.91,435.09,1526.93,405.69Z"/><path class="cls-2" d="M1433.66,284.16c0,26,.26,51.93-.05,77.88-.6,51.15-35.1,94.27-84.82,106.49-62.27,15.31-125.79-25.74-137.1-88.57a121.11,121.11,0,0,1-2-21.57q0-77.5,0-155c0-6.84,1.59-8.44,8.3-8.44,5.38,0,10.75,0,16.12,0s7.65,2.31,7.65,7.8c0,50.92-.08,101.84,0,152.77.06,22.43,6.35,42.89,21.51,59.88,18.36,20.57,41.92,28.07,68.86,25.43,40-3.92,63.51-34.44,68.62-69.67a139.9,139.9,0,0,0,1.32-20.14q0-73.77,0-147.53c0-6.88,1.67-8.53,8.64-8.54,5,0,10-.06,15,0,5.69.08,7.92,2.36,7.92,8q0,40.64,0,81.25Z"/><path class="cls-2" d="M1032.8,191.52c26.74.26,53.86,8.57,78.16,25.73,6.32,4.46,6.58,5.63,2.65,12.08-2.59,4.26-5.09,8.58-7.84,12.74-3.3,5-6.44,5.53-11.17,1.94-16.45-12.46-35.33-18.25-55.59-19.95-47.76-4-104.11,28.19-116.17,86.66-12.47,60.44,27.1,116.88,85,126.57,30,5,57.7-2.44,83.58-17.62,9.71-5.7,9.68-5.76,15.5,4q3.34,5.63,6.71,11.25c2.87,4.81,2.64,6.57-1.9,10.09a118.54,118.54,0,0,1-26.81,15.52c-53,22.3-113.21,11.05-154.32-29.27-23.56-23.1-36.83-51.41-40.52-84.23-7.41-65.9,31.27-120.8,82.72-143.56C990.94,195.46,1010,191.58,1032.8,191.52Z"/><path class="cls-3" d="M236.79,526.94q-71,0-142.07,0c-3.85,0-7.44-.51-10.59-2.93-4.7-3.61-5.48-9-1.84-13.82q29.42-39,58.86-78,118.22-156.9,236.42-313.81c4.5-6,9.56-7.41,15.14-4.3s7,9.5,3.33,14.34q-82.41,109.55-164.8,219.1Q173.16,424.73,115.11,502c-.92,1.23-2.94,2.54-2.16,3.95s3,.51,4.54.51q130.26,0,260.52,0c1.63,0,3.25,0,4.88,0,6.37.26,9.66,3.53,9.94,9.8.24,5.51-3.36,9.69-9.1,10.45a41.59,41.59,0,0,1-5.24.19Z"/><path class="cls-2" d="M2272.77,231.52c1.83,3.15,3.23,5.61,4.68,8q31.68,53.38,63.43,106.73a15.53,15.53,0,0,1,2.28,8.42q-.12,54.29,0,108.55c0,7.05-1.54,8.59-8.54,8.61q-7.87,0-15.74,0c-5.91,0-7.27-1.33-7.28-7.27q0-54.09,0-108.18a14.28,14.28,0,0,0-2.33-8q-44.25-70.48-88.34-141.06c-1.29-2.06-3.88-4.24-2.73-6.61,1.26-2.6,4.53-1.2,6.88-1.21q54.15-.12,108.3-.06c7.14,0,8.49,1.36,8.49,8.52,0,5.37.08,10.73,0,16.1s-2.26,7.43-7.6,7.44h-61.48Z"/><path class="cls-3" d="M2006,335.28V208.74c0-7.74,1.51-9.28,9.1-9.28h99.7c7.71,0,9.69,2,9.69,9.8,0,4.37,0,8.74,0,13.1-.07,6.75-2,8.7-8.73,8.7q-36.36,0-72.72,0c-5.83,0-5.27-.77-5.27,5.1q0,113.07,0,226.13c0,7.71-1.82,9.56-9.43,9.57-4.62,0-9.25,0-13.87,0-6.49,0-8.44-2-8.44-8.54Q2006,399.29,2006,335.28Z"/><path class="cls-2" d="M504.1,206c0,2.5,0,5,0,7.49,0,5.07-1.28,6.69-6.4,7.4A52.57,52.57,0,0,0,466.29,237c-12.43,13-20.56,28.24-19.18,47,.72,9.74,5.17,18.13,11.17,25.69,7.38,9.29,15,18.41,22.23,27.77,38.85,50,8.74,119.14-46.37,133.3A94.75,94.75,0,0,1,419,473.27c-4.64.42-7.15-1.75-7.28-6.38-.15-5.49-.11-11,0-16.47.05-4,1.69-6.3,5.64-6.67,22.64-2.14,46.3-25.82,50.35-51.5,1.94-12.3-1-23.46-7.63-33.86-6.26-9.86-14.29-18.28-22-26.95-10.48-11.81-18.32-24.95-20.95-40.68-4.69-28,3.87-52,22.79-72.52C455.08,201.83,474,192.53,496.5,191c5.19-.35,7.45,1.69,7.58,6.81C504.16,200.53,504.1,203.27,504.1,206Z"/><path class="cls-2" d="M1819.08,336.07V207.67c0-6.52,1.66-8.19,8.16-8.2,5.37,0,10.75,0,16.12,0,6,.06,7.77,1.79,7.77,7.88q0,34.44,0,68.88V462.65c0,7.75-1.44,9.22-9.09,9.22-5.37,0-10.74,0-16.12,0s-6.85-1.65-6.85-7Q1819.07,400.46,1819.08,336.07Z"/></svg>