<?xml version="1.0" encoding="UTF-8"?>
<svg width="174px" height="48px" viewBox="0 0 174 48" version="1.1" xmlns="http://www.w3.org/2000/svg" xmlns:xlink="http://www.w3.org/1999/xlink">
    <title>Group</title>
    <g id="Page-1" stroke="none" stroke-width="1" fill="none" fill-rule="evenodd">
        <g id="Group" fill="#444463" fill-rule="nonzero">
            <path d="M40.3835005,37.3565969 C38.2593005,39.6452969 35.6661005,41.4485969 32.7810005,42.6431969 C26.1390005,45.3399969 20.1200005,43.7832969 17.9633005,43.0915969 C16.0856005,42.4889969 12.6678005,41.3475969 9.68310054,38.1233969 C7.07160054,35.3017969 6.14040054,32.3463969 5.72000054,30.9591969 C4.14430054,25.7655969 5.12000054,21.2508969 5.73410054,19.1400969 C5.73410054,19.1872969 5.70350054,19.5502969 5.67670054,20.1451969 C5.58630054,22.1999969 5.43850054,26.5451969 7.54550054,30.7769969 C8.24100054,32.1743969 9.77220054,34.7450969 12.9315005,37.0380969 C15.2453005,38.8377969 17.9463005,40.0739969 20.8207005,40.6488969 C23.6951005,41.2236969 26.6639005,41.1214969 29.4919005,40.3501969 C31.5810005,39.8278969 35.2129005,38.5998969 38.4727005,35.5730969 C39.8009005,34.3308969 40.9576005,32.9171969 41.9122005,31.3692969 C42.5720005,30.3017969 43.5071005,28.7642969 44.0778005,26.5285969 C44.4319005,25.1400969 44.8854005,23.2712969 44.3325005,21.0508969 C44.1580005,20.3489969 43.8345005,19.1133969 42.8039005,17.9935969 C42.2434005,17.3859969 41.6969005,17.0534969 41.1478005,16.7197969 C39.9402005,15.9859969 38.9046005,15.6878969 37.5810005,15.3184969 C36.3682005,14.9805969 35.1340005,14.7251969 33.8867005,14.5541969 L33.0817005,14.4700969 C33.8277005,15.7148969 34.3986005,17.0565969 34.7785005,18.4572969 C35.1982005,19.9958969 35.3787005,21.5898969 35.3135005,23.1833969 C35.2676005,24.1884969 35.2179005,25.2916969 34.7288005,26.6113969 C33.9734005,28.6495969 32.6613005,29.8750969 31.8384005,30.6253969 C30.2894005,32.0173969 28.4342005,33.0246969 26.4231005,33.5654969 C25.4206005,33.8265969 24.3747005,34.0304969 24.3747005,34.0304969 C24.9281005,34.0369969 25.4813005,34.0067969 26.0307005,33.9399969 C26.6040005,33.8750969 27.0155005,33.8291969 27.5594005,33.7183969 C28.2555005,33.5668969 28.9407005,33.3689969 29.6103005,33.1259969 C30.4855005,32.8011969 32.8243005,31.9094969 34.5199005,30.0470969 C35.8269005,28.6100969 36.3632005,27.1693969 36.7734005,26.0190969 C36.7734005,26.0190969 38.2256005,21.9425969 36.6460005,16.9744969 C37.3943005,18.0398969 38.0051005,19.1954969 38.4638005,20.4139969 C38.9281005,21.8092969 39.1437005,23.2752969 39.1007005,24.7451969 C39.0121005,26.8006969 38.4451005,28.8071969 37.4447005,30.6049969 C36.3725005,32.4808969 34.8923005,34.0916969 33.1135005,35.3183969 C29.1709005,38.0596969 25.0804005,38.0265969 24.0690005,37.9934969 C22.7301005,37.9488969 18.9671005,37.7705969 15.5518005,34.9832969 C10.9111005,31.1947969 10.6245005,25.6699969 10.5939005,24.7807969 C10.5582005,23.7744969 10.4550005,16.9655969 16.0372005,13.1885969 C20.6766005,10.0496969 25.9250005,11.4331969 26.7148005,11.6598969 L25.1492005,15.1642969 L25.6346005,15.6458969 L27.7352005,11.6382969 C27.5203005,12.9732969 27.3046005,14.3091969 27.0881005,15.6458969 L27.7352005,15.3248969 L28.6002005,11.9210969 C29.0435005,12.0700969 31.3938005,12.8127969 33.3976005,11.6382969 C34.4829005,10.9226969 35.3659005,9.94009689 35.9619005,8.78479689 C35.9619005,8.77589689 36.0893005,8.53759689 36.2549005,8.21659689 C36.3364005,8.06119689 36.4472005,7.84209689 36.5785005,7.57969689 C36.0345005,7.40259689 35.6014005,7.27269689 35.2969005,7.18349689 C35.1352005,7.13639689 34.9466005,7.08289689 34.5925005,6.97839689 L33.8613005,6.76189689 C33.7543005,6.70069689 33.5874005,6.60259689 33.3861005,6.47649689 C31.5173005,5.30959689 31.3543005,4.66379689 30.0014005,3.78989689 C29.0991005,3.22309689 28.1190005,2.79089689 27.0919005,2.50709689 C26.2722005,2.24909689 25.4291005,2.07279689 24.5747005,1.98098689 C24.5747005,1.98098689 24.1263005,1.92493689 23.7390005,1.89054689 C23.0843005,1.83066689 21.7734005,1.83831689 20.0868005,1.96569689 C19.8634005,1.31284689 19.4150005,0.760766886 18.8219005,0.408166886 C18.2287005,0.0555768857 17.5295005,-0.0745231143 16.8492005,0.0411268857 C16.1690005,0.156776886 15.5520005,0.510636886 15.1087005,1.03942689 C14.6654005,1.56822689 14.4247005,2.23749689 14.4295005,2.92749689 C11.9356005,3.97229689 9.63950054,5.43729689 7.64110054,7.25869689 C0.806700536,13.5057969 0.117530536,21.7285969 0.044920536,22.8024969 C-0.053169464,24.2444969 -0.426409464,31.7883969 4.89330054,38.5093969 C12.2015005,47.7386969 24.4626005,48.1042969 30.1594005,46.5793969 C32.0237005,46.0563969 33.8154005,45.3027969 35.4931005,44.3360969 C37.9034005,42.8398969 39.9916005,40.8786969 41.6357005,38.5666969 C42.3267005,37.5359969 42.9304005,36.4493969 43.4408005,35.3183969 C43.8788005,34.3644969 44.2616005,33.3861969 44.5873005,32.3883969 C44.8916005,31.4970969 45.1375005,30.5868969 45.3236005,29.6635969 C45.4531005,29.0490969 45.5475005,28.4276969 45.6064005,27.8024969 C45.6064005,27.8024969 43.8026005,33.6877969 40.3835005,37.3565969 Z M27.3645005,5.81149689 C27.5077005,5.66819689 27.7020005,5.58749689 27.9046005,5.58729689 C27.9989005,5.58619689 28.0925005,5.60369689 28.1799005,5.63889689 C28.2674005,5.67409689 28.3470005,5.72629689 28.4142005,5.79239689 C28.4804005,5.85809689 28.5329005,5.93629689 28.5685005,6.02249689 C28.6042005,6.10869689 28.6223005,6.20109689 28.6218106,6.29429689 C28.6215005,6.39419689 28.6015005,6.49299689 28.5628005,6.58509689 C28.5241005,6.67709689 28.4675005,6.76059689 28.3963005,6.83059689 C28.2593005,6.97039689 28.0728005,7.05049689 27.8771005,7.05389689 C27.6814005,7.05719689 27.4922005,6.98339689 27.3505005,6.84849689 C27.2835005,6.78179689 27.2305005,6.70239689 27.1949005,6.61479689 C27.1592005,6.52729689 27.1415005,6.43339689 27.1428005,6.33889689 C27.1443005,6.14079689 27.2240005,5.95119689 27.3645005,5.81149689 Z" id="Shape"></path>
            <path d="M60.0955005,17.8769969 L60.0955005,20.4703969 L49.7737005,20.4703969 L49.7737005,17.8769969 L60.0955005,17.8769969 Z M52.7821005,13.1050969 L55.8423005,13.1050969 L55.8423005,32.0889969 C55.8423005,32.9534969 55.9677005,33.6017969 56.2184005,34.0340969 C56.4777005,34.4576969 56.8062005,34.7429969 57.2039005,34.8898969 C57.6102005,35.0281969 58.0381005,35.0973969 58.4876005,35.0973969 C58.8248005,35.0973969 59.1014005,35.0800969 59.3175005,35.0454969 C59.5336005,35.0022969 59.7065005,34.9676969 59.8362005,34.9417969 L60.4586005,37.6907969 C60.2511005,37.7685969 59.9615005,37.8463969 59.5898005,37.9241969 C59.2181005,38.0106969 58.7469005,38.0538969 58.1764005,38.0538969 C57.3119005,38.0538969 56.4647005,37.8679969 55.6348005,37.4962969 C54.8136005,37.1245969 54.1306005,36.5583969 53.5860005,35.7975969 C53.0500005,35.0368969 52.7821005,34.0772969 52.7821005,32.9188969 L52.7821005,13.1050969 Z M73.3609005,17.8769969 L73.3609005,20.4703969 L63.0391005,20.4703969 L63.0391005,17.8769969 L73.3609005,17.8769969 Z M66.0475005,13.1050969 L69.1077005,13.1050969 L69.1077005,32.0889969 C69.1077005,32.9534969 69.2331005,33.6017969 69.4838005,34.0340969 C69.7431005,34.4576969 70.0716005,34.7429969 70.4693005,34.8898969 C70.8756005,35.0281969 71.3035005,35.0973969 71.7530005,35.0973969 C72.0901005,35.0973969 72.3668005,35.0800969 72.5829005,35.0454969 C72.7990005,35.0022969 72.9719005,34.9676969 73.1016005,34.9417969 L73.7240005,37.6907969 C73.5165005,37.7685969 73.2269005,37.8463969 72.8552005,37.9241969 C72.4835005,38.0106969 72.0123005,38.0538969 71.4418005,38.0538969 C70.5773005,38.0538969 69.7301005,37.8679969 68.9002005,37.4962969 C68.0790005,37.1245969 67.3960005,36.5583969 66.8514005,35.7975969 C66.3154005,35.0368969 66.0475005,34.0772969 66.0475005,32.9188969 L66.0475005,13.1050969 Z M86.1012005,38.2094969 C84.1820005,38.2094969 82.5265005,37.7858969 81.1347005,36.9386969 C79.7516005,36.0828969 78.6839005,34.8898969 77.9319005,33.3597969 C77.1884005,31.8209969 76.8167005,30.0315969 76.8167005,27.9913969 C76.8167005,25.9511969 77.1884005,24.1530969 77.9319005,22.5970969 C78.6839005,21.0322969 79.7300005,19.8133969 81.0699005,18.9402969 C82.4185005,18.0584969 83.9918005,17.6176969 85.7899005,17.6176969 C86.8273005,17.6176969 87.8517005,17.7905969 88.8632005,18.1363969 C89.8746005,18.4820969 90.7953005,19.0440969 91.6252005,19.8220969 C92.4550005,20.5914969 93.1160005,21.6114969 93.6090005,22.8822969 C94.1020005,24.1530969 94.3480005,25.7177969 94.3480005,27.5763969 L94.3480005,28.8731969 L78.9952005,28.8731969 L78.9952005,26.2278969 L91.2362005,26.2278969 C91.2362005,25.1039969 91.0114005,24.1011969 90.5619005,23.2194969 C90.1210005,22.3376969 89.4899005,21.6417969 88.6687005,21.1317969 C87.8560005,20.6216969 86.8965005,20.3666969 85.7899005,20.3666969 C84.5710005,20.3666969 83.5164005,20.6692969 82.6260005,21.2743969 C81.7442005,21.8708969 81.0656005,22.6488969 80.5901005,23.6084969 C80.1147005,24.5680969 79.8769005,25.5967969 79.8769005,26.6946969 L79.8769005,28.4581969 C79.8769005,29.9623969 80.1363005,31.2374969 80.6550005,32.2834969 C81.1823005,33.3208969 81.9128005,34.1118969 82.8464005,34.6564969 C83.7800005,35.1924969 84.8650005,35.4604969 86.1012005,35.4604969 C86.9051005,35.4604969 87.6313005,35.3480969 88.2796005,35.1232969 C88.9366005,34.8898969 89.5029005,34.5440969 89.9783005,34.0858969 C90.4538005,33.6190969 90.8212005,33.0398969 91.0805005,32.3483969 L94.0370005,33.1781969 C93.7260005,34.1809969 93.2030005,35.0627969 92.4680005,35.8234969 C91.7332005,36.5755969 90.8255005,37.1634969 89.7449005,37.5870969 C88.6643005,38.0019969 87.4497005,38.2094969 86.1012005,38.2094969 Z M99.0030005,37.7945969 L99.0030005,17.8769969 L101.960001,17.8769969 L101.960001,20.8853969 L102.167001,20.8853969 C102.531001,19.8998969 103.188001,19.1001969 104.138001,18.4864969 C105.089001,17.8726969 106.161001,17.5657969 107.354001,17.5657969 C107.579001,17.5657969 107.860001,17.5700969 108.197001,17.5787969 C108.534001,17.5873969 108.789001,17.6003969 108.962001,17.6176969 L108.962001,20.7297969 C108.859001,20.7037969 108.621001,20.6648969 108.249001,20.6130969 C107.886001,20.5525969 107.501001,20.5222969 107.095001,20.5222969 C106.127001,20.5222969 105.262001,20.7254969 104.502001,21.1317969 C103.749001,21.5293969 103.153001,22.0826969 102.712001,22.7915969 C102.280001,23.4917969 102.064001,24.2913969 102.064001,25.1904969 L102.064001,37.7945969 L99.0030005,37.7945969 Z M127.528001,17.8769969 C127.372001,16.5629969 126.741001,15.5428969 125.635001,14.8167969 C124.528001,14.0905969 123.171001,13.7274969 121.563001,13.7274969 C120.387001,13.7274969 119.359001,13.9176969 118.477001,14.2980969 C117.604001,14.6783969 116.921001,15.2014969 116.428001,15.8670969 C115.944001,16.5326969 115.702001,17.2891969 115.702001,18.1363969 C115.702001,18.8451969 115.870001,19.4546969 116.208001,19.9646969 C116.553001,20.4660969 116.994001,20.8853969 117.530001,21.2224969 C118.066001,21.5509969 118.628001,21.8232969 119.216001,22.0394969 C119.804001,22.2468969 120.344001,22.4154969 120.837001,22.5451969 L123.534001,23.2712969 C124.226001,23.4528969 124.995001,23.7035969 125.842001,24.0233969 C126.698001,24.3432969 127.515001,24.7798969 128.293001,25.3330969 C129.080001,25.8776969 129.728001,26.5779969 130.238001,27.4337969 C130.748001,28.2895969 131.003001,29.3399969 131.003001,30.5847969 C131.003001,32.0197969 130.627001,33.3165969 129.875001,34.4749969 C129.132001,35.6333969 128.042001,36.5539969 126.607001,37.2369969 C125.181001,37.9198969 123.448001,38.2613969 121.407001,38.2613969 C119.506001,38.2613969 117.859001,37.9544969 116.467001,37.3406969 C115.084001,36.7268969 113.995001,35.8710969 113.199001,34.7731969 C112.413001,33.6752969 111.967001,32.4001969 111.864001,30.9478969 L115.183001,30.9478969 C115.270001,31.9506969 115.607001,32.7805969 116.195001,33.4375969 C116.791001,34.0858969 117.543001,34.5700969 118.451001,34.8898969 C119.367001,35.2010969 120.353001,35.3566969 121.407001,35.3566969 C122.635001,35.3566969 123.737001,35.1578969 124.714001,34.7601969 C125.691001,34.3538969 126.465001,33.7919969 127.035001,33.0744969 C127.606001,32.3483969 127.891001,31.5011969 127.891001,30.5328969 C127.891001,29.6511969 127.645001,28.9336969 127.152001,28.3803969 C126.659001,27.8270969 126.011001,27.3775969 125.207001,27.0317969 C124.403001,26.6859969 123.534001,26.3834969 122.600001,26.1240969 L119.333001,25.1904969 C117.258001,24.5939969 115.615001,23.7424969 114.405001,22.6359969 C113.195001,21.5293969 112.590001,20.0813969 112.590001,18.2919969 C112.590001,16.8050969 112.992001,15.5082969 113.796001,14.4017969 C114.608001,13.2865969 115.698001,12.4221969 117.063001,11.8083969 C118.438001,11.1859969 119.972001,10.8746969 121.667001,10.8746969 C123.378001,10.8746969 124.900001,11.1815969 126.231001,11.7953969 C127.563001,12.4004969 128.617001,13.2303969 129.395001,14.2850969 C130.182001,15.3397969 130.597001,16.5370969 130.640001,17.8769969 L127.528001,17.8769969 Z M144.226001,38.2094969 C142.307001,38.2094969 140.652001,37.7858969 139.260001,36.9386969 C137.877001,36.0828969 136.809001,34.8898969 136.057001,33.3597969 C135.314001,31.8209969 134.942001,30.0315969 134.942001,27.9913969 C134.942001,25.9511969 135.314001,24.1530969 136.057001,22.5970969 C136.809001,21.0322969 137.855001,19.8133969 139.195001,18.9402969 C140.544001,18.0584969 142.117001,17.6176969 143.915001,17.6176969 C144.953001,17.6176969 145.977001,17.7905969 146.988001,18.1363969 C148.000001,18.4820969 148.921001,19.0440969 149.750001,19.8220969 C150.580001,20.5914969 151.242001,21.6114969 151.734001,22.8822969 C152.227001,24.1530969 152.474001,25.7177969 152.474001,27.5763969 L152.474001,28.8731969 L137.120001,28.8731969 L137.120001,26.2278969 L149.361001,26.2278969 C149.361001,25.1039969 149.137001,24.1011969 148.687001,23.2194969 C148.246001,22.3376969 147.615001,21.6417969 146.794001,21.1317969 C145.981001,20.6216969 145.022001,20.3666969 143.915001,20.3666969 C142.696001,20.3666969 141.642001,20.6692969 140.751001,21.2743969 C139.869001,21.8708969 139.191001,22.6488969 138.715001,23.6084969 C138.240001,24.5680969 138.002001,25.5967969 138.002001,26.6946969 L138.002001,28.4581969 C138.002001,29.9623969 138.262001,31.2374969 138.780001,32.2834969 C139.308001,33.3208969 140.038001,34.1118969 140.972001,34.6564969 C141.905001,35.1924969 142.990001,35.4604969 144.226001,35.4604969 C145.030001,35.4604969 145.757001,35.3480969 146.405001,35.1232969 C147.062001,34.8898969 147.628001,34.5440969 148.104001,34.0858969 C148.579001,33.6190969 148.946001,33.0398969 149.206001,32.3483969 L152.162001,33.1781969 C151.851001,34.1809969 151.328001,35.0627969 150.593001,35.8234969 C149.858001,36.5755969 148.951001,37.1634969 147.870001,37.5870969 C146.790001,38.0019969 145.575001,38.2094969 144.226001,38.2094969 Z M165.220001,38.2094969 C163.353001,38.2094969 161.745001,37.7685969 160.396001,36.8868969 C159.048001,36.0050969 158.011001,34.7904969 157.284001,33.2430969 C156.558001,31.6956969 156.195001,29.9277969 156.195001,27.9394969 C156.195001,25.9165969 156.567001,24.1314969 157.310001,22.5840969 C158.062001,21.0279969 159.108001,19.8133969 160.448001,18.9402969 C161.797001,18.0584969 163.370001,17.6176969 165.168001,17.6176969 C166.569001,17.6176969 167.831001,17.8769969 168.955001,18.3956969 C170.079001,18.9143969 170.999001,19.6404969 171.717001,20.5741969 C172.434001,21.5077969 172.880001,22.5970969 173.052001,23.8418969 L169.992001,23.8418969 C169.759001,22.9341969 169.240001,22.1301969 168.436001,21.4299969 C167.641001,20.7210969 166.569001,20.3666969 165.220001,20.3666969 C164.027001,20.3666969 162.981001,20.6778969 162.082001,21.3002969 C161.192001,21.9140969 160.496001,22.7828969 159.994001,23.9066969 C159.502001,25.0218969 159.255001,26.3315969 159.255001,27.8357969 C159.255001,29.3745969 159.497001,30.7144969 159.982001,31.8555969 C160.474001,32.9966969 161.166001,33.8827969 162.056001,34.5138969 C162.955001,35.1448969 164.010001,35.4604969 165.220001,35.4604969 C166.016001,35.4604969 166.737001,35.3221969 167.386001,35.0454969 C168.034001,34.7688969 168.583001,34.3711969 169.033001,33.8524969 C169.482001,33.3338969 169.802001,32.7113969 169.992001,31.9852969 L173.052001,31.9852969 C172.880001,33.1609969 172.452001,34.2198969 171.769001,35.1621969 C171.094001,36.0958969 170.200001,36.8392969 169.084001,37.3925969 C167.978001,37.9371969 166.690001,38.2094969 165.220001,38.2094969 Z" id="Shape"></path>
        </g>
    </g>
</svg>