<?xml version="1.0" encoding="utf-8"?>
<!-- Offsec Logo Refresh 2019 - DigiP Line Cleanup -->
<!DOCTYPE svg PUBLIC "-//W3C//DTD SVG 1.1//EN" "http://www.w3.org/Graphics/SVG/1.1/DTD/svg11.dtd">
<svg version="1.1" id="Layer_2" xmlns="http://www.w3.org/2000/svg" xmlns:xlink="http://www.w3.org/1999/xlink" x="0px" y="0px"
	 width="291.646px" height="71.184px" viewBox="0 0 291.646 71.184" enable-background="new 0 0 291.646 71.184"
	 xml:space="preserve">
<g id="Color_Fill_3">
	<g>
		<path fill-rule="evenodd" clip-rule="evenodd" fill="#444463" d="M32.265,41.95c-0.033-0.042-0.065-0.089-0.099-0.144
			c-0.099-0.17,0.027-1.144,0.13-1.405c0.065-0.167-0.137-0.093-0.131-0.336c0.017-0.61,0.058-1.46,0.012-2.157
			c-0.045-0.698-0.107-1.338-0.19-1.748c-0.083-0.413-0.431-2.747-0.415-3.454c0.017-0.709-0.292-2.55-0.349-3.36
			c-0.036-0.542-0.376-1.976-0.458-2.19c-0.083-0.215-0.213-0.263-0.395-0.05c-0.073,0.087,0.178,1.256,0.188,2.722
			c0.004,0.53-0.062,1.092-0.042,1.644c0.059,1.669,0.229,3.247,0.25,3.569c0.049,0.726,0.373,1.827,0.487,2.814
			c0.073,0.638-0.118,1.516-0.079,1.895c0.019,0.187-0.225,0.038-0.207,0.252c0.034,0.387,0.388,0.849,0.345,1.271
			c-0.044,0.455-0.03,0.697-0.485,0.843c-0.291,0.094-0.89,0.327-1.188,0.391c-0.299,0.063-0.869,0.394-0.869,0.394
			s0.606,0.304,0.823,0.366c0.216,0.061,0.614,0.068,0.823,0.151c0.481,0.195,0.715,0.31,0.573,1.067
			c-0.043,0.226-0.309,0.346-0.385,0.63c-0.013,0.049,0.088,0.101,0.075,0.151c-0.229,0.914-0.563,2.118-0.058,2.827
			c0.095,0.132,0.285,0.231,0.44,0.237c0.154,0.006,0.368-0.03,0.564-0.175c0.197-0.143,0.383-1.024,0.425-1.652
			c0.019-0.288,0.081-0.563,0.057-0.845c-0.03-0.373-0.017-1.464-0.007-1.841c0.007-0.273-0.02-0.403,0.146-0.448
			c0.244-0.063-0.166-0.729-0.133-1.136C32.125,42.118,32.18,42.018,32.265,41.95z M41.006,0.835H18.732v41.311l-18.297,25.6h58.869
			L41.006,41.78V0.835z M39.156,57.473c-0.309,0.439-1.141,0.556-1.627,0.59c-0.671,0.047-3.269,0.123-3.473,0.163
			c-0.449,0.089-1.921,0.786-1.99,0.862c-0.069,0.075-0.063,0.075-0.024,0.166c0.04,0.089,0.799,0.792,1.067,1.078
			c0.346,0.371,1.319,1.396,1.372,1.885c0.054,0.49-0.01,0.778-0.463,1.14c-0.417,0.331-0.925,0.595-1.508,0.796
			c-0.465,0.159-1.08,0.329-1.632,0.401c-0.42,0.057-0.938,0.026-1.378-0.041c-0.168-0.024-0.376-0.071-0.542-0.096
			c-0.325-0.045-0.986-0.007-1.144-0.002c-1.277,0.021-2.54-0.724-2.723-0.862c-0.353-0.268-0.578-0.566-0.712-0.935
			c-0.133-0.366-0.161-1.28-0.012-1.557c0.149-0.277,0.501-0.667,0.824-0.832c0.234-0.118,1.156-0.559,1.29-0.635
			c0.191-0.105,0.415-0.442,0.354-0.658c-0.062-0.215-0.152-0.421-0.467-0.578c-0.441-0.217-0.916-0.38-1.452-0.477
			c-0.456-0.079-0.984-0.13-1.488-0.175c-0.646-0.057-1.369-0.063-2.027-0.085c-0.19-0.006-0.889-0.092-1.009-0.18
			c-0.12-0.089-0.177-0.204-0.209-0.327c-0.069-0.255-0.075-0.489-0.053-0.741c0.035-0.398,0.117-0.778,0.183-1.17
			c0.03-0.18,0.057-0.356,0.125-0.53c0.047-0.119,0.127-0.235,0.17-0.357c0.116-0.337,0.148-0.637,0.113-0.994
			c-0.009-0.103-0.046-0.18-0.023-0.305c0.023-0.127,0.06-0.249,0.182-0.352c0.54-0.452,1.91-1.851,1.947-1.874
			c0.12-0.082,0.255-0.135,0.4-0.17c0.077-0.019,0.193-0.036,0.263-0.052c0.298-0.073,0.577-0.181,0.763-0.411
			c0.773-0.915,1.468-1.904,2.22-2.836c0.229-0.285,0.406-0.627,0.55-0.907c0.121-0.235,0.443-0.795,0.72-1.2
			c0.056-0.084,0.226-0.521,0.263-0.549c0.122-0.091,0.262-0.004,0.233-0.109c-0.064-0.23-0.749-0.555-1.024-0.737
			c-0.201-0.13-0.36-0.206-0.389-0.477c-0.013-0.114,0.021-0.212,0.08-0.295c-0.512-0.134-0.25-0.484,0.025-0.822
			c0.311-0.38,1.014-0.953,1.552-1.505c0.197-0.203,0.313-0.314,0.291-0.449c-0.056-0.34-0.325,0.086-0.297-0.419
			c0.009-0.139,0.033-0.636-0.013-1.287c-0.041-0.583-0.169-1.305-0.242-2.064c-0.164-1.71-0.315-3.599-0.467-4.453
			c-0.294-1.656-1.296-5.622-1.591-6.51c-0.109-0.328-0.091-0.688-0.211-1.017c-0.059-0.163-0.146-0.317-0.277-0.433
			c-0.149-0.13-0.387-0.122-0.508-0.259c-0.06-0.068-0.092-0.155-0.122-0.24c-0.269-0.771-0.451-1.575-0.638-2.368
			c-0.116-0.495-0.229-0.992-0.337-1.488c-0.051-0.234-0.067-0.475-0.047-0.713c0.044-0.492,0.155-0.979,0.177-1.476
			c0.012-0.272,0.013-0.544,0.007-0.816c-0.008-0.353-0.068-0.722-0.047-1.073c0.074-1.275,0.078-3.266,0.461-3.882
			c0.047-0.076,0.116-0.137,0.197-0.177c0.984-0.5,2.065-0.57,2.582-1.147c0.531-0.592,0.472-0.948,0.472-1.421
			c0-0.474-0.472-0.887-0.648-1.42c-0.176-0.532,0-1.895,0.295-2.485c0.177-0.355,0.779-1.059,1.248-0.898
			c0.093,0.032,0.174,0.097,0.272,0.116c0.265,0.056,0.481-0.168,0.757-0.084c0.207,0.062,0.399,0.183,0.568,0.314
			c0.427,0.333,0.778,0.825,0.809,1.38c0.06,1.065-1.12,2.781-1.061,3.077s0.766,0.888,1.002,0.946
			c0.498,0.127,0.992,0.274,1.486,0.421c0.491,0.146,1.322,0.219,1.524,0.787c0.118,0.327,0.171,0.714,0.244,1.058
			c0.09,0.43,0.223,1.136,0.293,1.57c0.016,0.103,0.031,0.204,0.046,0.307c0.119,0.829-0.235,3.255,0.06,3.61
			c0.294,0.354,0.767,0.473,0.708,1.007c-0.06,0.531-0.119,1.183,0,1.596c0.118,0.415,0.235,1.185,0.176,1.717
			c-0.059,0.533,0,0.711-0.236,1.006c-0.235,0.296-0.707,0.177-0.824,0.474c-0.119,0.296-0.009,4.653-0.119,6.687
			c-0.053,1.012,0.286,3.416,0.345,3.948s0.128,2.902,0.146,3.296c0.021,0.426,0.157,1.375,0.275,2.084
			c0.051,0.305,0.112,0.87,0.056,0.944c-0.056,0.075-0.144,0.005-0.159,0.065c-0.05,0.203,0.043,0.521,0.122,0.702
			c0.176,0.414,1.085,1.659,0.967,2.132c-0.028,0.111-0.071,0.197-0.125,0.264c0.094,0.103,0.125,0.22,0.114,0.371
			c-0.028,0.402-0.541,0.739-0.723,0.801c-0.191,0.064-0.003,0.312-0.001,0.62c0.003,0.513,0.068,1.179,0.099,1.326
			c0.041,0.191,0.361,1.01,0.427,1.194c0.076,0.212,0.752,1.447,0.967,1.861c0.203,0.388,0.549,0.793,0.9,1.063
			c0.313,0.242,0.257,0.1,0.627,0.075c0.339-0.022,0.603,0.409,0.659,0.67c0.054,0.26,0.207,0.646,0.232,0.887
			c0.026,0.243,0.114,0.573,0.127,0.729c0.012,0.144-0.03,0.219-0.209,0.428c-0.179,0.211,0.215,1.614,0.292,1.951
			C39.684,55.963,39.441,57.069,39.156,57.473z M71.434,32.971c1.08,1.213,2.505,2.124,4.279,2.729
			c1.774,0.607,3.773,0.911,6.001,0.911c2.347,0,4.403-0.322,6.168-0.964c1.764-0.644,3.165-1.563,4.202-2.763
			c1.037-1.199,1.652-2.522,1.85-3.972c0.197-1.449,0.296-3.914,0.296-7.397v-5.931c0-3.567-0.104-6.066-0.309-7.494
			c-0.205-1.427-0.848-2.747-1.927-3.96c-1.08-1.214-2.506-2.123-4.279-2.73c-1.772-0.606-3.773-0.909-6-0.909
			c-2.347,0-4.404,0.32-6.168,0.963c-1.765,0.643-3.165,1.563-4.202,2.762c-1.036,1.199-1.653,2.523-1.851,3.973
			c-0.197,1.448-0.295,3.914-0.295,7.396v5.931c0,3.569,0.103,6.066,0.308,7.494C69.713,30.438,70.355,31.759,71.434,32.971z
			 M80.017,10.127c0-1.785,0.15-2.858,0.451-3.223c0.299-0.364,0.732-0.546,1.297-0.546c0.669,0,1.109,0.225,1.324,0.674
			s0.321,1.481,0.321,3.095v15.929c0,2.042-0.103,3.333-0.308,3.875c-0.206,0.543-0.677,0.814-1.414,0.814
			c-0.72,0-1.178-0.236-1.375-0.707c-0.197-0.471-0.297-1.712-0.297-3.726V10.127z M109.084,21.325h6.682v-6.596h-6.682V8.157h7.503
			V1.219H98.264v34.664h10.819V21.325z M136.71,14.729h-6.682V8.157h7.503V1.219h-18.322v34.664h10.819V21.325h6.682V14.729z
			 M158.915,28.946h-7.943v-7.621h6.758v-6.596h-6.758V8.157h7.223V1.219h-18.041v34.664h18.762V28.946z M171.07,20.126
			l5.627,15.758h9.484V1.219h-9.047v15.608L171.07,1.219h-9.047v34.664h9.047V20.126z M209.282,35.423
			c1.988-0.791,3.33-1.772,4.023-2.943s1.039-2.99,1.039-5.46c0-3.397-0.625-5.859-1.873-7.387
			c-1.254-1.527-4.287-3.481-9.104-5.862c-1.678-0.827-2.697-1.535-3.057-2.12c-0.375-0.586-0.563-1.457-0.563-2.613
			c0-0.9,0.168-1.572,0.5-2.015c0.336-0.442,0.828-0.664,1.479-0.664c0.6,0,1.029,0.163,1.285,0.492
			c0.258,0.329,0.385,1.093,0.385,2.291v2.569h10.049v-1.37c0-2.755-0.32-4.707-0.963-5.855c-0.643-1.149-1.955-2.103-3.934-2.859
			c-1.977-0.756-4.373-1.134-7.182-1.134c-2.57,0-4.764,0.347-6.58,1.038c-1.816,0.692-3.129,1.652-3.943,2.88
			s-1.223,3.168-1.223,5.823c0,1.842,0.289,3.354,0.861,4.54c0.576,1.185,1.299,2.112,2.174,2.782
			c0.873,0.671,2.654,1.749,5.344,3.233c2.689,1.47,4.377,2.52,5.063,3.147c0.668,0.628,1.002,1.964,1.002,4.004
			c0,0.928-0.176,1.627-0.527,2.098c-0.35,0.471-0.885,0.707-1.605,0.707c-0.719,0-1.221-0.186-1.504-0.558
			c-0.281-0.37-0.424-1.205-0.424-2.505v-4.217h-10.047v2.269c0,2.599,0.316,4.604,0.949,6.017c0.635,1.413,1.975,2.577,4.023,3.49
			c2.045,0.914,4.518,1.371,7.412,1.371C204.982,36.612,207.296,36.217,209.282,35.423z M228.558,1.219h-10.82v34.664h10.82V1.219z
			 M253.118,35.884l5.508-34.664h-11.41l-0.752,6.445c-0.629,5.181-1.223,11.111-1.781,17.792
			c-0.566-6.609-1.514-14.688-2.838-24.237h-11.412l6.252,34.664H253.118z M271.269,21.325h6.758v-6.596h-6.758V8.157h7.221V1.219
			h-18.041v34.664h18.762v-6.938h-7.941V21.325z M287.279,1.396h-0.029c-2.186,0.01-3.941,1.788-3.941,3.976
			c0.008,2.176,1.785,3.944,3.971,3.935c2.176,0,3.943-1.777,3.934-3.965C291.212,3.165,289.445,1.406,287.279,1.396z
			 M287.368,8.338h-0.09c-1.707-0.03-3.064-1.429-3.035-3.136c0.031-1.639,1.34-2.977,2.986-3.026h0.02
			c1.656,0.01,2.994,1.378,2.975,3.036v0.069C290.282,6.919,288.995,8.288,287.368,8.338z M288.148,5.382V5.331
			c0.449-0.089,0.777-0.469,0.797-0.918c0.021-0.32-0.129-0.63-0.396-0.819c-0.393-0.25-0.861-0.359-1.318-0.31
			c-0.5,0-1,0.041-1.488,0.12V7.26h0.898V5.731h0.42c0.498,0,0.738,0.189,0.797,0.589c0.061,0.33,0.16,0.649,0.311,0.939h0.947
			c-0.139-0.3-0.238-0.609-0.289-0.939C288.718,5.802,288.527,5.491,288.148,5.382z M287.089,5.092h-0.43V3.993
			c0.17-0.04,0.33-0.06,0.5-0.05c0.568,0,0.828,0.23,0.828,0.59C287.988,4.932,287.589,5.092,287.089,5.092z M265.015,58.016
			l-3.586-13.43h-11.91l6.863,19.104c0.66,1.791,0.729,2.144,0.734,2.197c0,0.066,0,0.238-0.508,0.339
			c-0.518,0.101-1.725,0.151-3.588,0.151h-0.381v4.313h7.777c3.389,0,5.893-0.146,7.451-0.436c1.588-0.293,2.85-0.76,3.758-1.392
			c0.922-0.646,1.594-1.474,1.992-2.466c0.383-0.95,0.842-2.675,1.404-5.271l3.586-16.541h-11.844L265.015,58.016z M277.663,45.347
			l-3.385,15.619c-0.545,2.519-1.006,4.249-1.367,5.147c-0.344,0.853-0.922,1.566-1.721,2.124c-0.816,0.569-1.98,0.996-3.459,1.27
			c-1.514,0.28-3.975,0.422-7.314,0.422h-7.016v-2.79c1.721-0.007,2.818-0.061,3.354-0.167c0.979-0.19,1.123-0.762,1.123-1.085
			c0-0.118,0-0.338-0.777-2.457l-6.498-18.083h10.24l4.43,16.586l2.162-16.586H277.663z M95.039,56.625
			c-1.159-0.887-3.483-1.796-7.107-2.779c-2.626-0.718-4.38-1.268-5.215-1.639c-1.051-0.465-1.301-0.771-1.359-0.88
			c-0.097-0.179-0.211-0.553-0.211-1.318c0-0.384,0.114-0.644,0.357-0.823c0.274-0.201,0.717-0.303,1.315-0.303
			c1.002,0,1.236,0.2,1.284,0.261c0.056,0.072,0.237,0.409,0.237,1.721v1.585h11.572v-1.67c0-1.175-0.112-2.027-0.344-2.605
			c-0.245-0.606-0.888-1.227-1.965-1.889c-1.029-0.635-2.514-1.151-4.413-1.532c-1.876-0.378-4.183-0.567-6.854-0.567
			c-2.691,0-5.091,0.233-7.134,0.695c-2.084,0.47-3.594,1.163-4.487,2.053c-0.916,0.913-1.381,2.326-1.381,4.199
			c0,1.338,0.428,2.513,1.27,3.488c0.84,0.974,3.041,2.006,6.729,3.156c5.255,1.62,6.717,2.171,7.011,2.34
			c0.31,0.187,0.48,0.779,0.48,1.667c0,0.627-0.121,1.042-0.351,1.204c-0.188,0.133-0.618,0.29-1.592,0.29
			c-0.667,0-1.121-0.132-1.313-0.386c-0.123-0.162-0.33-0.65-0.33-2.098v-1.787H69.665v1.452c0,1.943,0.449,3.427,1.335,4.411
			c0.886,0.981,2.436,1.73,4.737,2.292c2.224,0.541,4.931,0.815,8.047,0.815c2.816,0,5.26-0.255,7.263-0.759
			c2.047-0.513,3.537-1.264,4.431-2.239c0.908-0.987,1.368-2.453,1.368-4.352C96.848,58.892,96.239,57.545,95.039,56.625z
			 M94.919,64.466c-0.792,0.861-2.155,1.541-4.055,2.015c-1.944,0.488-4.326,0.735-7.079,0.735c-3.056,0-5.703-0.268-7.867-0.793
			c-2.119-0.516-3.583-1.21-4.352-2.063c-0.757-0.838-1.14-2.15-1.14-3.899v-0.69h10.048v1.025c0,1.312,0.154,2.124,0.485,2.56
			c0.352,0.462,0.979,0.686,1.918,0.686c0.955,0,1.62-0.14,2.03-0.429c0.455-0.319,0.676-0.916,0.676-1.827
			c0-1.215-0.277-1.975-0.854-2.323c-0.314-0.182-1.402-0.629-7.173-2.411c-3.499-1.092-5.645-2.075-6.377-2.927
			c-0.731-0.846-1.085-1.825-1.085-2.99c0-1.663,0.389-2.896,1.157-3.66c0.79-0.788,2.175-1.41,4.117-1.849
			c1.987-0.45,4.331-0.678,6.966-0.678c2.622,0,4.876,0.187,6.704,0.554c1.811,0.363,3.211,0.846,4.163,1.434
			c1.147,0.707,1.536,1.22,1.659,1.526c0.192,0.478,0.29,1.257,0.29,2.319v0.909H85.101v-0.824c0-1.499-0.226-1.966-0.396-2.186
			c-0.295-0.381-0.894-0.558-1.886-0.558c-0.774,0-1.352,0.146-1.766,0.449c-0.444,0.326-0.669,0.811-0.669,1.438
			c0,0.752,0.099,1.303,0.302,1.68c0.217,0.404,0.764,0.791,1.721,1.215c0.881,0.392,2.622,0.939,5.323,1.677
			c3.479,0.943,5.781,1.835,6.844,2.648c1.016,0.78,1.511,1.891,1.511,3.4C96.086,62.331,95.693,63.622,94.919,64.466z
			 M245.863,63.047c-0.023-0.025-0.244-0.319-0.244-2.134V49.4h3.291v-4.278h-3.291v-3.501h-12.99v3.501h-2.629V49.4h2.629v10.909
			c0,2.28,0.115,3.7,0.355,4.346c0.254,0.688,0.887,1.292,1.875,1.799c0.943,0.481,2.043,0.795,3.273,0.927
			c1.193,0.129,3.207,0.194,5.988,0.194h5.303v-4.347h-0.381C246.415,63.228,245.931,63.079,245.863,63.047z M248.661,66.813h-4.541
			c-2.754,0-4.74-0.063-5.906-0.19c-1.135-0.122-2.148-0.407-3.01-0.848c-0.813-0.416-1.32-0.882-1.506-1.386
			c-0.143-0.378-0.309-1.394-0.309-4.08v-11.67h-2.627v-2.755h2.627v-3.502h11.467v3.502h3.291v2.755h-3.291v12.273
			c0,2.116,0.281,2.581,0.59,2.771c0.234,0.145,0.807,0.293,3.215,0.307V66.813z M113.957,48.121c-1,0-1.598,0.188-1.881,0.589
			c-0.173,0.244-0.372,0.752-0.372,2.521v2.006h4.325v-2.006c0-1.256-0.126-2.03-0.396-2.438
			C115.338,48.345,114.773,48.121,113.957,48.121z M115.267,52.474h-2.802v-1.243c0-1.627,0.178-2.006,0.232-2.083
			c0.033-0.044,0.24-0.266,1.26-0.266c0.375,0,0.86,0.058,1.042,0.33c0.101,0.152,0.269,0.617,0.269,2.019V52.474z M121.971,45.283
			c-2.252-0.729-5.141-1.098-8.587-1.098c-2.818,0-5.351,0.305-7.531,0.908c-2.219,0.617-3.847,1.525-4.838,2.702
			c-1.001,1.187-1.509,2.815-1.509,4.843v6.482c0,1.729,0.22,3.018,0.673,3.944c0.452,0.925,1.263,1.775,2.412,2.53
			c1.133,0.742,2.726,1.332,4.736,1.753c1.99,0.417,4.313,0.63,6.902,0.63c2.675,0,4.935-0.217,6.716-0.641
			c1.802-0.428,3.317-1.084,4.5-1.945c1.215-0.887,1.973-1.712,2.315-2.521c0.336-0.794,0.499-1.876,0.499-3.314v-2.022h-12.327
			v3.312c0,1.259-0.208,1.781-0.383,1.997c-0.231,0.286-0.771,0.436-1.561,0.436c-0.785,0-1.101-0.168-1.228-0.31
			c-0.089-0.098-0.295-0.458-0.295-1.688v-4.426h15.793v-3.329c0-2.229-0.479-3.994-1.421-5.245
			C125.898,47.033,124.261,46.023,121.971,45.283z M127.497,56.094h-15.793v5.188c0,1.128,0.156,1.828,0.491,2.198
			c0.34,0.379,0.926,0.561,1.793,0.561c1.056,0,1.761-0.234,2.152-0.719c0.373-0.458,0.554-1.269,0.554-2.476v-2.551h10.803v1.262
			c0,1.313-0.147,2.331-0.438,3.016c-0.284,0.67-0.978,1.412-2.063,2.202c-1.101,0.805-2.522,1.418-4.227,1.824
			c-1.722,0.409-3.923,0.617-6.539,0.617c-2.538,0-4.808-0.208-6.747-0.612c-1.916-0.4-3.421-0.955-4.474-1.645
			c-1.034-0.679-1.756-1.43-2.146-2.229c-0.396-0.809-0.596-2.023-0.596-3.609v-6.482c0-1.842,0.448-3.306,1.331-4.352
			c0.891-1.056,2.391-1.884,4.46-2.46c2.113-0.584,4.577-0.881,7.326-0.881c3.366,0,6.177,0.358,8.353,1.062
			c2.137,0.693,3.649,1.611,4.493,2.731c0.841,1.115,1.268,2.728,1.268,4.787V56.094z M147.866,60.696
			c0,1.325-0.201,1.886-0.369,2.123c-0.215,0.306-0.674,0.459-1.366,0.459c-0.597,0-1.029-0.153-1.318-0.47
			c-0.295-0.322-0.444-0.835-0.444-1.527V50.797c0-1.187,0.188-1.534,0.27-1.627c0.161-0.186,0.562-0.287,1.131-0.287
			c0.575,0,0.976,0.116,1.157,0.337c0.113,0.141,0.305,0.53,0.305,1.577v2.943h12.268v-0.382c0-2.153-0.398-3.852-1.182-5.048
			c-0.787-1.207-2.369-2.212-4.697-2.985c-2.283-0.756-5.066-1.14-8.273-1.14c-3.229,0-6.013,0.387-8.274,1.149
			c-2.334,0.788-3.829,1.675-4.566,2.711c-0.729,1.022-1.097,2.532-1.097,4.491v6.316c0,2.236,0.445,3.998,1.324,5.236
			c0.879,1.24,2.381,2.212,4.464,2.889c2.042,0.663,4.835,1,8.301,1c2.717,0,5.036-0.245,6.889-0.726
			c1.875-0.486,3.424-1.22,4.6-2.184c1.199-0.983,1.924-1.972,2.152-2.938c0.217-0.912,0.338-2.284,0.359-4.079l0.004-0.385h-11.637
			V60.696z M148.628,60.696v-2.267h10.102c-0.029,1.548-0.143,2.733-0.33,3.526c-0.191,0.799-0.828,1.649-1.895,2.523
			c-1.09,0.894-2.541,1.578-4.307,2.035c-1.793,0.466-4.049,0.701-6.7,0.701c-3.387,0-6.1-0.325-8.066-0.962
			c-1.923-0.625-3.296-1.502-4.079-2.604c-0.785-1.106-1.183-2.72-1.183-4.796v-6.316c0-1.798,0.322-3.159,0.957-4.05
			c0.632-0.888,2.042-1.706,4.189-2.431c2.184-0.736,4.885-1.11,8.031-1.11c3.125,0,5.828,0.37,8.033,1.104
			c2.162,0.717,3.607,1.616,4.301,2.676c0.656,1.003,1.01,2.431,1.051,4.253h-10.738v-2.182c0-0.993-0.156-1.667-0.48-2.061
			c-0.336-0.41-0.922-0.615-1.743-0.615c-0.828,0-1.385,0.18-1.707,0.55c-0.311,0.358-0.455,1.033-0.455,2.126v10.484
			c0,0.888,0.216,1.574,0.643,2.04c0.436,0.478,1.069,0.719,1.88,0.719c0.954,0,1.622-0.262,1.989-0.781
			C148.462,62.776,148.628,61.935,148.628,60.696z M178.505,59.925c0,2.382-0.15,2.933-0.217,3.06
			c-0.025,0.049-0.203,0.294-1.275,0.294c-0.977,0-1.186-0.228-1.229-0.297c-0.053-0.095-0.232-0.577-0.232-2.889V44.587h-12.961
			v15.371c0,1.958,0.072,3.236,0.221,3.908c0.156,0.711,0.549,1.396,1.17,2.035c0.617,0.637,1.572,1.15,2.838,1.523
			c1.236,0.366,2.807,0.554,4.668,0.554c1.641,0,3.115-0.196,4.381-0.58c0.953-0.287,1.801-0.688,2.535-1.192l-0.156,1.369h13.219
			V44.587h-12.961V59.925z M178.968,63.331c0.139-0.273,0.297-0.905,0.297-3.406V45.347h11.438v21.466h-11.602l0.275-2.41
			l-0.744,0.66c-0.801,0.709-1.803,1.248-2.982,1.606c-1.195,0.361-2.598,0.546-4.162,0.546c-1.787,0-3.285-0.176-4.451-0.522
			c-1.139-0.335-1.982-0.78-2.508-1.322c-0.52-0.537-0.848-1.097-0.973-1.668c-0.133-0.609-0.203-1.869-0.203-3.745v-14.61h11.438
			v14.745c0,2.394,0.182,3.007,0.338,3.275c0.268,0.452,0.883,0.672,1.885,0.672C178.101,64.04,178.72,63.816,178.968,63.331z
			 M217.439,44.046h11.18v-4.288h-11.18V44.046z M218.198,40.52h9.658v2.765h-9.658V40.52z M208.202,46.754l0.357-2.167h-13.029
			v22.988h12.961v-9.157c0-2.609,0.182-3.609,0.336-3.986c0.193-0.484,0.766-0.882,1.695-1.178c1.006-0.323,2.621-0.486,4.805-0.486
			h0.381v-8.597l-0.395,0.015C212.365,44.293,209.978,45.155,208.202,46.754z M214.947,52.008c-2.07,0.02-3.639,0.194-4.656,0.519
			c-1.156,0.37-1.885,0.915-2.17,1.62c-0.264,0.648-0.391,2.047-0.391,4.271v8.396h-11.436V45.347h11.367l-0.633,3.842l0.891-1.053
			c1.621-1.917,3.984-2.981,7.027-3.171V52.008z M217.439,67.398h11.18V44.639h-11.18V67.398z M218.198,45.4h9.658v21.236h-9.658
			V45.4z"/>
	</g>
</g>
</svg>
