<svg xmlns="http://www.w3.org/2000/svg" xmlns:xlink="http://www.w3.org/1999/xlink" viewBox="0 0 468.7 215.63"><defs><style>.cls-1{fill:#005286;}.cls-2{fill:url(#linear-gradient);}.cls-3{fill:url(#linear-gradient-2);}.cls-4{fill:url(#linear-gradient-3);}</style><linearGradient id="linear-gradient" x1="-7051.74" y1="5608.42" x2="-7051.74" y2="5392.1" gradientTransform="matrix(1, 0, 0.15, -0.99, 6503.98, 5547.9)" gradientUnits="userSpaceOnUse"><stop offset="0" stop-color="#00e5ea"/><stop offset="1" stop-color="#00b5cc"/></linearGradient><linearGradient id="linear-gradient-2" x1="1498.32" y1="4426.9" x2="1497.92" y2="4309.89" gradientTransform="matrix(1, 0, 0, -1, -1107.01, 4433.48)" xlink:href="#linear-gradient"/><linearGradient id="linear-gradient-3" x1="320.76" y1="14.17" x2="320.76" y2="47.97" gradientUnits="userSpaceOnUse"><stop offset="0" stop-color="#0069a5"/><stop offset="1" stop-color="#003d6b"/></linearGradient></defs><g id="Project_SEKAI_Wide_Black" data-name="Project SEKAI Wide Black"><path class="cls-1" d="M107,117.14v-4c11.93,0,22.15-8.62,23.76-20L143.67,1.51h4.06l-13,92.14C132.81,107.05,120.89,117.14,107,117.14Z"/><path class="cls-1" d="M97.43,98.3A16,16,0,0,1,81.17,79.58l8.68-61.42A21.78,21.78,0,0,1,110.77,0a16.34,16.34,0,0,1,12.57,5.5A16.36,16.36,0,0,1,127,18.72l-8.69,61.42C116.92,90.15,107.54,98.3,97.43,98.3ZM110.77,4a17.63,17.63,0,0,0-17,14.72L85.13,80.14A12,12,0,0,0,97.43,94.3a17.65,17.65,0,0,0,16.95-14.72l8.69-61.42a12.41,12.41,0,0,0-2.75-10A12.4,12.4,0,0,0,110.77,4Z"/><polygon class="cls-1" points="186.94 5.42 187.5 1.51 167.04 1.51 163.73 1.51 162.99 1.51 149.49 96.95 150.69 96.95 153.54 96.95 174 96.95 174.57 92.95 154.11 92.95 159.96 51.59 180.42 51.59 180.98 47.59 160.53 47.59 166.49 5.42 186.94 5.42"/><polygon class="cls-1" points="266.73 1.51 235.72 1.51 235.17 5.42 249.37 5.42 236.42 96.95 240.48 96.95 253.41 5.42 266.18 5.42 266.73 1.51"/><path class="cls-1" d="M212.61,1.51a15.86,15.86,0,0,0-15.24,13.24l-9.86,69.48a11.69,11.69,0,0,0,2.76,9.34A12.57,12.57,0,0,0,199.45,98h.2c6.38,0,11.65-5.57,15.15-9.28L211.9,86c-3.06,3.23-7.67,8.11-12.38,8a8.54,8.54,0,0,1-6.21-3,7.73,7.73,0,0,1-1.84-6.18l9.86-69.48a11.83,11.83,0,0,1,11.28-9.9h13.91l.55-3.91Z"/><path class="cls-1" d="M37.08,5.58a12,12,0,0,0-9.26-4.06H13.5L0,97H4.06l6.41-45.37H21.31A15.87,15.87,0,0,0,36.55,38.34l3.25-23A12,12,0,0,0,37.08,5.58Zm-1.24,9.17-3.26,23a11.74,11.74,0,0,1-11.27,9.8H11L17,5.42H27.85a7.94,7.94,0,0,1,8,9.33Z"/><path class="cls-1" d="M75.09,5.58a12,12,0,0,0-9.26-4.06H51.53L38,97h4L48.5,51.58h10L65,96.2h4l-6.6-45A16,16,0,0,0,74.56,38.34l3.25-23A12,12,0,0,0,75.09,5.58Zm-1.24,9.17-3.25,23a11.76,11.76,0,0,1-11.28,9.8H49.07L55,5.42H65.86a7.94,7.94,0,0,1,8,9.33Z"/><polygon class="cls-1" points="223.75 215.47 219.69 215.47 233.19 120.04 237.24 120.04 223.75 215.47"/><path class="cls-1" d="M65.83,215.63h0a14.49,14.49,0,0,1-11-4.65,11.3,11.3,0,0,1-2.68-9.15l1.31-8.59,4.4-2.34-1.76,11.52a7.24,7.24,0,0,0,1.75,5.93,10.47,10.47,0,0,0,8,3.28h0c6.42,0,12.26-4.39,13-9.8l5.42-38.33L55.5,178.77l6.37-46c1-7.3,8.65-13.24,17-13.24h0a14.52,14.52,0,0,1,11,4.65,11.36,11.36,0,0,1,2.68,9.14L91.35,142,87,144.34l1.64-11.6a7.29,7.29,0,0,0-1.74-6,10.5,10.5,0,0,0-8-3.28h0c-6.42,0-12.26,4.39-13,9.79l-5.29,38.27,28.8-15.28-6.52,46.1C81.78,209.69,74.16,215.63,65.83,215.63Z"/><polygon class="cls-1" points="174.15 120.04 169.64 120.04 142.74 171.76 150.05 120.04 146 120.04 132.5 215.47 136.55 215.47 141.05 183.67 151.66 163.27 164.27 215.47 168.38 215.47 154.47 157.87 174.15 120.04"/><path class="cls-1" d="M205,215.47h4l-2.29-94.87h0l0-.56h-4L173.4,215.47h4.18l9.82-32h16.83Zm-16.37-36L203,132.68l1.13,46.81Z"/><polygon class="cls-1" points="132.58 123.94 133.14 120.03 112.68 120.03 109.36 120.03 108.62 120.03 95.13 215.47 96.33 215.47 99.18 215.47 119.64 215.47 120.2 211.47 99.75 211.47 105.6 170.11 126.05 170.11 126.62 166.11 106.16 166.11 112.13 123.94 132.58 123.94"/><polygon class="cls-2" points="279.69 1.51 288.56 1.51 256.47 215.44 247.6 215.44 279.69 1.51"/><path class="cls-3" d="M393.81,14.88C396,.34,331.4,1.5,296.53,1.5L283.6,87.67c33.36-1.94,99.5-2,97.21,13.27-1.14,7.58-5.53,7.29-6.1,11.08-1.52,10.14,70.94,5.62,81.15,4.52L434,73.6,468.7,30.31c-17.47,1.81-82.47,4.94-81.11-4.15C388.32,21.29,393,20.6,393.81,14.88Z"/><path class="cls-4" d="M324.34,13l-5.8,25.24A9.73,9.73,0,0,0,312,36c-4.66,0-8.43,2.82-8.42,6.27s3.8,6.24,8.46,6.22c4,0,7.4-2.12,8.23-4.92h0v0c0-.14.06-.28.09-.42l3.48-15.5q9.18,2.06,9.72,5.26a9,9,0,0,1-1.27,6.22,10.78,10.78,0,0,0,5.7-8.81Q338.47,24.44,324.34,13Z"/></g></svg>