<svg xmlns="http://www.w3.org/2000/svg" xmlns:xlink="http://www.w3.org/1999/xlink" viewBox="0 0 392.32 215.54"><defs><style>.cls-1{fill:url(#linear-gradient);}.cls-2{fill:url(#linear-gradient-2);}.cls-3{fill:url(#linear-gradient-3);}.cls-4{fill:#005286;}</style><linearGradient id="linear-gradient" x1="-7408.43" y1="8777.01" x2="-7408.43" y2="8560.69" gradientTransform="matrix(1, 0, 0.15, -0.99, 6314.31, 8680.44)" gradientUnits="userSpaceOnUse"><stop offset="0" stop-color="#ffd626"/><stop offset="1" stop-color="#ffa300"/></linearGradient><linearGradient id="linear-gradient-2" x1="1420.89" y1="3811.18" x2="1420.49" y2="3694.17" gradientTransform="matrix(1, 0, 0, -1, -1108.07, 3816.51)" xlink:href="#linear-gradient"/><linearGradient id="linear-gradient-3" x1="1377.13" y1="3796.65" x2="1377.02" y2="3765.62" gradientTransform="matrix(1, 0, 0, -1, -1108.07, 3816.51)" gradientUnits="userSpaceOnUse"><stop offset="0" stop-color="#0069a5"/><stop offset="1" stop-color="#003d6b"/></linearGradient></defs><g id="SEKAI_CTF_Wide_Black" data-name="SEKAI CTF Wide Black"><polygon class="cls-1" points="203.31 0.53 212.18 0.53 180.09 214.45 171.22 214.45 203.31 0.53"/><path class="cls-2" d="M317.43,13.9C319.61-.65,255,.51,220.15.51L207.22,86.68c33.36-1.94,99.51-2,97.21,13.27-1.13,7.59-5.52,7.29-6.09,11.09-1.52,10.13,70.93,5.61,81.14,4.51L357.59,72.61l34.73-43.29c-17.47,1.82-82.47,5-81.11-4.15C312,20.3,316.57,19.61,317.43,13.9Z"/><path class="cls-3" d="M279,23.77a2.71,2.71,0,0,1-2.6,2.35,2.12,2.12,0,0,1-2.13-2.35,2.69,2.69,0,0,1,2.6-2.35A2.08,2.08,0,0,1,279,23.77Zm-43.26-2.56a2.69,2.69,0,0,0-2.59,2.35,2.11,2.11,0,0,0,2.13,2.35,2.68,2.68,0,0,0,2.59-2.35A2.12,2.12,0,0,0,235.73,21.21Zm21-6a2.69,2.69,0,0,0-2.6,2.35,2.12,2.12,0,0,0,2.13,2.35,2.7,2.7,0,0,0,2.6-2.35A2.09,2.09,0,0,0,256.74,15.17ZM239.23,43.11l.57,3.09H267l1.38-3.09Zm35-17.4c-2.36,1.95-6.19,4.5-9.77,4.5-4.26,0-6.58-6.51-7.54-9.8a2.65,2.65,0,0,1-.68.06,1.73,1.73,0,0,1-.6-.06c-1.55,3.29-5.37,9.8-10,9.8-3.85,0-6.78-2.48-8.42-4.36a3.68,3.68,0,0,1-1.13.54l2.76,14.37h30.67l5.87-14.24a2.08,2.08,0,0,1-1.13-.81Z"/><polygon class="cls-4" points="181.21 0.53 167.71 95.96 171.77 95.96 185.27 0.53 181.21 0.53"/><path class="cls-4" d="M13.85,96.12h0a14.52,14.52,0,0,1-11-4.65A11.34,11.34,0,0,1,.12,82.32l1.31-8.59,4.41-2.34L4.08,82.91a7.27,7.27,0,0,0,1.74,5.93,10.48,10.48,0,0,0,8,3.28h0c6.42,0,12.27-4.39,13-9.8L32.3,44,3.53,59.26l6.36-46c1-7.3,8.65-13.24,17-13.24h0A14.52,14.52,0,0,1,37.93,4.65a11.33,11.33,0,0,1,2.68,9.14l-1.23,8.72L35,24.83l1.64-11.6a7.26,7.26,0,0,0-1.74-5.95,10.48,10.48,0,0,0-8-3.28h0c-6.42,0-12.27,4.39-13,9.79L8.56,52.06l28.8-15.28-6.52,46.1C29.81,90.18,22.19,96.12,13.85,96.12Z"/><polygon class="cls-4" points="122.17 0.53 117.66 0.53 90.76 52.26 98.08 0.53 94.02 0.53 80.52 95.96 84.58 95.96 89.08 64.16 99.69 43.76 112.29 95.96 116.41 95.96 102.5 38.36 122.17 0.53"/><path class="cls-4" d="M153,96h4L154.73,1.09h0V.53h-4L121.42,96h4.19l9.81-32h16.83ZM136.65,60,151,13.17,152.15,60Z"/><polygon class="cls-4" points="80.61 4.43 81.16 0.53 60.7 0.53 57.39 0.53 56.65 0.53 43.15 95.96 44.35 95.96 47.21 95.96 67.66 95.96 68.23 91.96 47.77 91.96 53.62 50.6 74.08 50.6 74.64 46.6 54.19 46.6 60.15 4.43 80.61 4.43"/><polygon class="cls-4" points="167.9 122.94 168.45 119.03 148 119.03 144.68 119.03 143.94 119.03 130.44 214.47 134.5 214.47 140.91 169.1 161.37 169.1 161.94 165.1 141.48 165.1 147.44 122.94 167.9 122.94"/><polygon class="cls-4" points="134.81 119.03 103.8 119.03 103.25 122.94 117.45 122.94 104.5 214.47 108.56 214.47 121.49 122.94 134.26 122.94 134.81 119.03"/><path class="cls-4" d="M80.68,119a15.85,15.85,0,0,0-15.23,13.23l-9.87,69.48a11.78,11.78,0,0,0,2.76,9.35,12.63,12.63,0,0,0,9.19,4.45h.19c6.39,0,11.66-5.58,15.16-9.28L80,203.51c-3,3.23-7.67,8.11-12.37,8a8.52,8.52,0,0,1-6.21-3,7.76,7.76,0,0,1-1.85-6.19l9.87-69.48a11.83,11.83,0,0,1,11.27-9.9l13.91,0,.56-3.91Z"/></g></svg>