<svg id="Layer_1" data-name="Layer 1" xmlns="http://www.w3.org/2000/svg" viewBox="0 0 58 11.3503"><defs><style>.cls-1{fill:#9fef00;}.cls-2{fill:#141d2b;}</style></defs><path class="cls-1" d="M11.58308,3.55975l.00031-.00468a.33892.33892,0,0,0-.10373-.24369l-.01018-.009L11.44763,3.284l-.02315-.0155-.01073-.00718L7.746,1.14363,7.71882,1.129a.34.34,0,0,0-.32491.01628L3.72884,3.26123l-.01174.00785L3.7086,3.274,3.701,3.27988l-.01967.01529-.01209.01065a.33856.33856,0,0,0-.02435.02492l-.001.00116a.33864.33864,0,0,0-.08467.22317l.00036.00534L3.559,3.5705V7.79607a.33925.33925,0,0,0,.179.29911l3.66366,2.11521.009.00443.02321.01144.0155.00648.02467.00833.01527.00444.02748.0054.0133.00227a.31867.31867,0,0,0,.08233,0l.01331-.00227.02747-.0054.0153-.00444.02464-.00831.0155-.0065.02323-.01144.009-.00443L11.4046,8.09518a.33927.33927,0,0,0,.179-.29911V3.56791ZM4.99653,3.41687l2.495-1.4405a.15965.15965,0,0,1,.15963,0l2.495,1.44046a.15963.15963,0,0,1,0,.27649l-2.495,1.44049a.15959.15959,0,0,1-.15962,0l-2.495-1.44046A.15962.15962,0,0,1,4.99653,3.41687ZM7.1391,8.89214A.15925.15925,0,0,1,6.90021,9.03L4.41011,7.59239a.15928.15928,0,0,1-.07963-.13793V4.57938a.15926.15926,0,0,1,.23889-.13792l2.4901,1.43768a.15927.15927,0,0,1,.07963.13793Zm3.673-1.43768a.15927.15927,0,0,1-.07962.13793L8.24239,9.03a.15925.15925,0,0,1-.23889-.13791V6.01707a.15925.15925,0,0,1,.07963-.13793l2.4901-1.43768a.15925.15925,0,0,1,.23888.13792Z"/><path class="cls-2" d="M17.39117,7.42585v-1.35a.086.086,0,0,0-.086-.086H16.12031a.086.086,0,0,0-.086.086v1.35a.086.086,0,0,1-.086.086h-.72054a.086.086,0,0,1-.086-.086V3.92445a.086.086,0,0,1,.086-.086h.72054a.086.086,0,0,1,.086.086v1.221a.086.086,0,0,0,.086.086h1.18487a.086.086,0,0,0,.086-.086v-1.221a.086.086,0,0,1,.086-.086h.72054a.086.086,0,0,1,.086.086v3.5014a.086.086,0,0,1-.086.086h-.72054A.086.086,0,0,1,17.39117,7.42585Z"/><path class="cls-2" d="M20.25159,6.79374l-.20019.65716a.086.086,0,0,1-.08226.06094h-.75506a.086.086,0,0,1-.08138-.11377l1.195-3.50139a.086.086,0,0,1,.08138-.05822h1.04812a.086.086,0,0,1,.08138.05822l1.195,3.50139a.086.086,0,0,1-.08138.11377h-.75469a.086.086,0,0,1-.08241-.06144l-.19553-.65616a.086.086,0,0,0-.08241-.06143H20.33384A.086.086,0,0,0,20.25159,6.79374Zm1.05556-1.04117c-.13415-.43859-.2631-.89256-.37146-1.33628h-.01033c-.10833.44372-.23215.89769-.36114,1.33628l-.04012.13758a.086.086,0,0,0,.08256.11006h.66091a.086.086,0,0,0,.08207-.11163Z"/><path class="cls-2" d="M26.53922,5.15921h-.75665a.08585.08585,0,0,1-.0844-.07118.62913.62913,0,0,0-.666-.55821c-.485,0-.78419.4334-.78419,1.14533s.29924,1.14533.77386,1.14533a.653.653,0,0,0,.68043-.58036.08572.08572,0,0,1,.08415-.06969h.7651a.08653.08653,0,0,1,.0855.09756,1.47093,1.47093,0,0,1-1.61518,1.32639,1.68426,1.68426,0,0,1-1.70766-1.91923,1.6889,1.6889,0,0,1,1.718-1.91923,1.444,1.444,0,0,1,1.59287,1.3085A.08651.08651,0,0,1,26.53922,5.15921Z"/><path class="cls-2" d="M30.71207,7.51184h-.90766a.086.086,0,0,1-.07172-.03855l-1.094-1.6537h-.01033V7.42585a.086.086,0,0,1-.086.086h-.72059a.086.086,0,0,1-.086-.086V3.92445a.086.086,0,0,1,.086-.086h.72059a.086.086,0,0,1,.086.086V5.42239h.01033l1.05263-1.54632a.086.086,0,0,1,.07108-.03761h.848a.086.086,0,0,1,.06818.13839L29.48817,5.52569a.086.086,0,0,0-.00089.1036l1.29387,1.74535A.086.086,0,0,1,30.71207,7.51184Z"/><path class="cls-2" d="M33.20462,4.34752V7.42585a.086.086,0,0,1-.086.086h-.30785a.086.086,0,0,1-.086-.086V4.34752a.086.086,0,0,0-.086-.086H31.55713a.086.086,0,0,1-.086-.086V3.92445a.086.086,0,0,1,.086-.086h2.81515a.086.086,0,0,1,.086.086v.25109a.086.086,0,0,1-.086.086H33.29061A.086.086,0,0,0,33.20462,4.34752Z"/><path class="cls-2" d="M37.76543,7.42585V5.90045a.086.086,0,0,0-.086-.086H35.97867a.086.086,0,0,0-.086.086v1.5254a.086.086,0,0,1-.086.086H35.504a.086.086,0,0,1-.086-.086V3.92445a.086.086,0,0,1,.086-.086h.30268a.086.086,0,0,1,.086.086V5.31053a.086.086,0,0,0,.086.086h1.70077a.086.086,0,0,0,.086-.086V3.92445a.086.086,0,0,1,.086-.086h.30785a.086.086,0,0,1,.086.086v3.5014a.086.086,0,0,1-.086.086h-.30785A.086.086,0,0,1,37.76543,7.42585Z"/><path class="cls-2" d="M40.2111,4.34752V5.3364a.086.086,0,0,0,.086.086h1.61306a.086.086,0,0,1,.086.086v.24587a.086.086,0,0,1-.086.086H40.29709a.086.086,0,0,0-.086.086V7.00278a.086.086,0,0,0,.086.086h1.77815a.086.086,0,0,1,.086.086v.25109a.086.086,0,0,1-.086.086H39.82242a.086.086,0,0,1-.086-.086V3.92445a.086.086,0,0,1,.086-.086h2.1961a.086.086,0,0,1,.086.086v.25109a.086.086,0,0,1-.086.086H40.29709A.086.086,0,0,0,40.2111,4.34752Z"/><path class="cls-2" d="M44.77707,3.83846c.91318,0,1.3362.38184,1.3362.94413a.81758.81758,0,0,1-.62426.841v.01024a.809.809,0,0,1,.71714.85646c0,.62426-.49528,1.02155-1.34136,1.02155h-1.436a.086.086,0,0,1-.086-.086V3.92445a.086.086,0,0,1,.086-.086Zm-.55721,1.39986a.086.086,0,0,0,.086.086h.37835c.39724,0,.5675-.129.5675-.40241s-.1651-.39208-.53656-.39208h-.40929a.086.086,0,0,0-.086.086Zm0,1.491a.086.086,0,0,0,.086.086h.399c.41785,0,.583-.129.583-.40761,0-.29408-.17022-.42818-.59845-.42818h-.38351a.086.086,0,0,0-.086.086Z"/><path class="cls-2" d="M50.60707,5.67515a1.78258,1.78258,0,1,1-3.55467,0,1.78258,1.78258,0,1,1,3.55467,0Zm-2.62088,0c0,.72226.30958,1.14533.84613,1.14533.53139,0,.84092-.42307.84092-1.14533s-.30953-1.14533-.84092-1.14533C48.29577,4.52982,47.98619,4.95289,47.98619,5.67515Z"/><path class="cls-2" d="M54.35465,7.51184h-.84736a.086.086,0,0,1-.07628-.0463l-.63628-1.22289H52.7844L52.143,7.46578a.086.086,0,0,1-.07615.04606h-.8427a.086.086,0,0,1-.07355-.13053l1.03423-1.70818a.086.086,0,0,0,.00011-.0889l-.973-1.61541a.086.086,0,0,1,.07366-.13036h.82175a.086.086,0,0,1,.07665.047l.60036,1.18086h.01033L53.39,3.88574a.086.086,0,0,1,.07678-.04728h.82156a.086.086,0,0,1,.07366.13036l-.97291,1.61531a.086.086,0,0,0,.00019.08905l1.03884,1.708A.086.086,0,0,1,54.35465,7.51184Z"/></svg>