
<svg width="94" height="56" viewBox="0 0 94 56" fill="none" xmlns="http://www.w3.org/2000/svg">
    <path d="M34.0391 54.6616L26.4307 50.515L24.5922 56L34.0248 54.6651C33.9961 54.6651 33.9817 54.6651 34.0391 54.6616Z" fill="#444463"/>
    <path d="M34.0388 54.6616L34.0246 54.6652C34.0601 54.6652 34.1205 54.6616 34.0388 54.6616Z" fill="#444463"/>
    <path d="M60.2294 51.9919L66.3542 50.1884L68.655 42.9283L62.9997 43.3153L60.2294 51.9919Z" fill="#444463"/>
    <path d="M74.8048 5.47788L70.1243 2.4425L67.5045 10.7747L72.6545 12.3226L74.8048 5.47788Z" fill="#444463"/>
    <path d="M43.2242 3.5324C43.2242 3.5324 46.3959 4.50514 47.6467 4.86015L52.1551 6.19501L52.2339 0L44.3065 1.57627L43.2242 3.5324Z" fill="#444463"/>
    <path d="M11.7511 26.6722L17.3168 26.6864L19.2986 20.4701L14.2383 19.1282C13.7007 20.8358 12.2995 24.9646 11.7511 26.6722Z" fill="#444463"/>
    <path d="M1.39397 20.8961L5.55836 25.2344L7.95593 17.5377L2.84541 16.1815L1.39397 20.8961Z" fill="#444463"/>
    <path d="M89.5987 45.7365C89.5127 43.5567 88.907 42.8432 87.6205 41.5048L80.9116 41.9521C82.7823 43.1272 83.9291 44.5827 84.1657 46.5353C84.4273 48.6796 82.0978 51.1576 79.8436 51.1576C78.5857 51.1576 77.9585 50.1707 77.9585 49.0382C77.9943 48.1932 78.2918 47.0962 78.7362 46.3649H78.7003H73.0451C72.6007 47.501 72.2316 48.7826 72.2316 49.9896C72.2316 54.1255 75.8906 55.187 79.3633 55.187C82.983 55.187 85.9791 54.4912 87.8642 51.1576C88.7135 49.6524 89.6704 47.4939 89.5987 45.7365Z" fill="#444463"/>
    <path d="M18.8043 0.560913L1.36185 0.575114L0 4.86014L6.39352 4.85304L3.2326 14.8148L8.3467 16.1709L11.8983 4.84949L17.4424 4.84239L18.8043 0.560913Z" fill="#444463"/>
    <path d="M20.7074 15.8976C21.3346 15.8585 21.9653 15.8585 22.5925 15.8585C23.6282 15.855 25.18 15.9295 25.18 17.3567C25.1836 18.3436 24.8144 19.5897 24.5206 20.5412C23.9687 22.4831 23.3057 24.4215 23.1946 26.3989L28.9215 26.3918C28.771 23.2073 30.7636 20.424 30.76 17.275C30.76 15.152 29.1329 14.3106 27.2479 13.9805L27.7998 13.9059C31.9032 13.3521 34.1897 10.1676 34.1861 6.17726C34.1825 1.75378 30.4482 0.511228 26.6422 0.514778L20.0659 0.521878C18.1951 6.27312 16.4212 12.0563 14.6042 17.8324L19.6609 19.1708L20.7074 15.8976ZM24.2446 4.57969L26.0939 4.57615C27.4629 4.57615 28.8283 4.90276 28.8319 6.51453C28.8355 8.49196 27.3948 11.8255 25.0295 11.8255L21.9976 11.8291L24.2446 4.57969Z" fill="#444463"/>
    <path d="M36.2035 26.4628L39.1529 20.9316L46.213 20.9245L45.998 26.4876L51.5422 26.4841L51.983 7.54402L47.2201 6.11331C46.7864 9.66701 46.5427 13.2598 46.5427 16.8241H46.5069L41.1849 16.8277C43.0987 13.242 44.9336 9.62795 46.5858 5.9216L42.769 4.7749L30.4371 26.4663L36.2035 26.4628Z" fill="#444463"/>
    <path d="M75.4534 26.4272L76.8547 22.2132L69.4254 22.2239L72.1778 13.6112L67.0278 12.0634L62.4442 26.4379L75.4534 26.4272Z" fill="#444463"/>
    <path d="M41.0415 28.0852H33.7628L26.9285 49.2654L35.6264 53.9587C40.8337 53.7634 44.482 49.947 44.482 44.707C44.482 42.6941 43.2241 41.1214 41.2673 40.5711C45.1128 39.6942 47.5856 37.241 47.5856 33.2152C47.582 29.2923 44.5143 28.0852 41.0415 28.0852ZM38.0491 48.4027C37.0133 49.9399 35.9059 50.05 34.1678 50.05H31.9136L34.39 42.4385C36.1998 42.5095 39.4145 42.0728 39.4145 44.707C39.4145 45.875 38.7157 47.4513 38.0491 48.4027ZM37.6047 38.7357H35.5332L37.7122 32.0365C39.3392 32.1111 42.407 31.5999 42.407 34.0885C42.4464 37.0174 40.5613 38.7357 37.6047 38.7357Z" fill="#444463"/>
    <path d="M58.6706 9.58191L53.148 27.8723L48.2704 42.7083L54.1264 42.261L58.3553 29.0616H58.3624L64.075 11.183C63.2794 10.9629 60.1113 9.95467 58.6706 9.58191Z" fill="#444463"/>
    <path d="M61.4087 28.1243L60.0397 32.4022H66.4368L63.4443 41.9272L69.0279 41.5474L71.9415 32.4022H77.4821L78.8511 28.1243H61.4087Z" fill="#444463"/>
    <path d="M86.7607 27.8651C81.0338 27.8651 77.6328 31.8164 77.6328 37.3085C77.6399 38.1073 78.3603 40.0741 79.8332 40.7308L86.7213 40.2693C85.5494 39.2895 83.4779 36.9783 83.4779 35.75C83.4779 34.0637 84.4277 31.859 86.388 31.859C87.7176 31.859 88.5311 32.2247 88.5311 33.6519C88.5311 34.5678 88.0867 35.4092 87.8287 36.2896H93.1506C93.4839 35.5192 94 33.7619 94 32.956C94.0036 28.9621 90.0865 27.8651 86.7607 27.8651Z" fill="#444463"/>
    <path d="M23.6104 28.2379C21.0049 28.2379 20.6322 30.1443 19.9871 32.1679C19.7721 32.8957 19.3635 33.7833 19.3635 34.5465C19.3635 36.0163 20.6788 36.2968 21.9009 36.2968C23.3953 36.3074 24.1909 35.8104 24.7213 34.4187C25.0833 33.4673 26.0258 30.8508 26.0258 29.9313C26.0258 28.6284 24.6998 28.2379 23.6104 28.2379ZM24.3379 30.1088C24.3379 30.4355 23.9652 31.5005 23.8397 31.8733L23.2627 33.6554C23.0369 34.33 22.7646 35.1039 21.9045 35.1039C21.4171 35.1039 21.1017 34.8234 21.1017 34.3193C21.1017 33.6661 21.6106 32.4555 21.8256 31.781C22.0406 31.11 22.3238 29.7716 23.0728 29.5124C23.2412 29.4556 23.424 29.4343 23.6068 29.4343C23.9472 29.4343 24.3558 29.7361 24.3558 30.0982L24.3379 30.1088Z" fill="#444463"/>
    <path d="M30.2401 32.782L30.6343 31.4898H28.3693L28.9821 29.562H31.3618L31.7811 28.2698H27.6561L25.1761 36.1937H26.9107L27.9858 32.782H30.2401Z" fill="#444463"/>
    </svg>
    